<mxfile host="app.diagrams.net" modified="2024-04-07T09:50:07.577Z" agent="Mozilla/5.0 (Windows NT 10.0; Win64; x64) AppleWebKit/537.36 (KHTML, like Gecko) Chrome/123.0.0.0 Safari/537.36" etag="f1Jm-POYRvklyjSMe5NO" version="24.2.2" type="github">
  <diagram name="Page-1" id="zEWh58wloMrwjiHDW4Rx">
    <mxGraphModel dx="1262" dy="1011" grid="1" gridSize="10" guides="1" tooltips="1" connect="1" arrows="1" fold="1" page="1" pageScale="1" pageWidth="827" pageHeight="1169" math="0" shadow="0">
      <root>
        <mxCell id="0" />
        <mxCell id="1" parent="0" />
        <mxCell id="bVOXMAOHhxDDhAMO49_X-5" value="" style="edgeStyle=orthogonalEdgeStyle;rounded=0;orthogonalLoop=1;jettySize=auto;html=1;" edge="1" parent="1" source="bVOXMAOHhxDDhAMO49_X-1" target="bVOXMAOHhxDDhAMO49_X-4">
          <mxGeometry relative="1" as="geometry" />
        </mxCell>
        <mxCell id="bVOXMAOHhxDDhAMO49_X-1" value="开始" style="rounded=0;whiteSpace=wrap;html=1;" vertex="1" parent="1">
          <mxGeometry x="340" y="190" width="120" height="60" as="geometry" />
        </mxCell>
        <mxCell id="bVOXMAOHhxDDhAMO49_X-7" value="" style="edgeStyle=orthogonalEdgeStyle;rounded=0;orthogonalLoop=1;jettySize=auto;html=1;" edge="1" parent="1" source="bVOXMAOHhxDDhAMO49_X-4" target="bVOXMAOHhxDDhAMO49_X-6">
          <mxGeometry relative="1" as="geometry" />
        </mxCell>
        <mxCell id="bVOXMAOHhxDDhAMO49_X-9" value="" style="edgeStyle=orthogonalEdgeStyle;rounded=0;orthogonalLoop=1;jettySize=auto;html=1;" edge="1" parent="1" source="bVOXMAOHhxDDhAMO49_X-4" target="bVOXMAOHhxDDhAMO49_X-8">
          <mxGeometry relative="1" as="geometry" />
        </mxCell>
        <mxCell id="bVOXMAOHhxDDhAMO49_X-4" value="CPU 是否为&lt;div&gt;Apple芯片&lt;/div&gt;" style="rhombus;whiteSpace=wrap;html=1;rounded=0;" vertex="1" parent="1">
          <mxGeometry x="345" y="330" width="110" height="90" as="geometry" />
        </mxCell>
        <mxCell id="bVOXMAOHhxDDhAMO49_X-6" value="OpenVINO (CPU) 推理" style="whiteSpace=wrap;html=1;rounded=0;" vertex="1" parent="1">
          <mxGeometry x="530" y="345" width="130" height="60" as="geometry" />
        </mxCell>
        <mxCell id="bVOXMAOHhxDDhAMO49_X-11" value="" style="edgeStyle=orthogonalEdgeStyle;rounded=0;orthogonalLoop=1;jettySize=auto;html=1;" edge="1" parent="1" source="bVOXMAOHhxDDhAMO49_X-8" target="bVOXMAOHhxDDhAMO49_X-10">
          <mxGeometry relative="1" as="geometry" />
        </mxCell>
        <mxCell id="bVOXMAOHhxDDhAMO49_X-15" value="" style="edgeStyle=orthogonalEdgeStyle;rounded=0;orthogonalLoop=1;jettySize=auto;html=1;" edge="1" parent="1" source="bVOXMAOHhxDDhAMO49_X-8" target="bVOXMAOHhxDDhAMO49_X-14">
          <mxGeometry relative="1" as="geometry" />
        </mxCell>
        <mxCell id="bVOXMAOHhxDDhAMO49_X-8" value="系统版本&lt;div&gt;大于等于12.0&lt;/div&gt;" style="rhombus;whiteSpace=wrap;html=1;rounded=0;" vertex="1" parent="1">
          <mxGeometry x="342.5" y="480" width="115" height="105" as="geometry" />
        </mxCell>
        <mxCell id="bVOXMAOHhxDDhAMO49_X-10" value="ONNX (CPU) 推理" style="whiteSpace=wrap;html=1;rounded=0;" vertex="1" parent="1">
          <mxGeometry x="535" y="502.5" width="120" height="60" as="geometry" />
        </mxCell>
        <mxCell id="bVOXMAOHhxDDhAMO49_X-14" value="CoreML推理" style="whiteSpace=wrap;html=1;rounded=0;" vertex="1" parent="1">
          <mxGeometry x="340" y="687.5" width="120" height="60" as="geometry" />
        </mxCell>
      </root>
    </mxGraphModel>
  </diagram>
</mxfile>
